The HIStory World Tour was the third and final worldwide solo concert tour by American artist Michael Jackson, covering Europe, Africa, Asia, Oceania and North America. The tour included a total of 82 concerts and was attended by approximately 4.5 million fans, beating his previous Bad World Tour with 4.4 million. The tour was the largest concert tour ever by a solo artist in terms of attendance at the time grossing a total of over $165 million (excluding free concerts).[1] The HIStory World Tour spanned the globe with stops in 58 cities, 35 countries on 5 continents. Unlike the Bad and Dangerous World Tours, the History World Tour has never been released on DVD, despite many fans requesting it. However, there have been several full concerts leaked on the internet.

Tracklist:

01. Intro 
02. Scream 
03. They don't care 
04. In the closet 
05. Wanna be startin'... 
06. Stranger in Moscow 
07. Smooth criminal 
08. You are not alone 
09. I want you back 
10. The love you save 
11. I'll be there 
12. Billie Jean intro 
13. Billie Jean 
14. Thriller 
15. Beat it 
16. Blood on the dance floore 
17. Dangerous 
18. Black or white 
19. Earth song 
20. We are the world 
21. Heal the world 
22. History 


Format                                   : MPEG-4
Format profile                           : Base Media / Version 2
Codec ID                                 : mp42
File size                                : 6.79 GiB
Duration                                 : 2h 0mn
Overall bit rate mode                    : Variable
Overall bit rate                         : 8 072 Kbps

Video
ID                                       : 2
Format                                   : AVC
Format/Info                              : Advanced Video Codec
Format profile                           : High@L5.0
Format settings, CABAC                   : Yes
Format settings, ReFrames                : 4 frames
Codec ID                                 : avc1
Codec ID/Info                            : Advanced Video Coding
Duration                                 : 2h 0mn
Source duration                          : 2h 0mn
Bit rate mode                            : Variable
Bit rate                                 : 7 803 Kbps
Width                                    : 960 pixels
Height                                   : 720 pixels
Display aspect ratio                     : 4:3
Frame rate mode                          : Variable
Frame rate                               : 50.000 fps
Minimum frame rate                       : 25.000 fps
Maximum frame rate                       : 50.000 fps
Standard                                 : NTSC
Color space                              : YUV
Chroma subsampling                       : 4:2:0
Bit depth                                : 8 bits
Scan type                                : Progressive
Bits/(Pixel*Frame)                       : 0.226
Stream size                              : 6.57 GiB (97%)
Source stream size                       : 6.57 GiB (97%)
Language                                 : English
mdhd_Duration                            : 7229860
Color primaries                          : BT.709
Transfer characteristics                 : BT.709
Matrix coefficients                      : BT.709

Audio
ID                                       : 1
Format                                   : AAC
Format/Info                              : Advanced Audio Codec
Format profile                           : LC
Codec ID                                 : 40
Duration                                 : 2h 0mn
Source duration                          : 2h 0mn
Bit rate mode                            : Variable
Bit rate                                 : 265 Kbps
Maximum bit rate                         : 382 Kbps
Channel(s)                               : 2 channels
Channel positions                        : Front: L R
Sampling rate                            : 48.0 KHz
Compression mode                         : Lossy
Stream size                              : 226 MiB (3%)
Source stream size                       : 227 MiB (3%)
Language                                 : English
mdhd_Duration                            : 7222849